<svg width="104" height="19" viewBox="0 0 104 19" fill="none" xmlns="http://www.w3.org/2000/svg">
<mask id="mask0_8_669" style="mask-type:alpha" maskUnits="userSpaceOnUse" x="0" y="0" width="104" height="19">
<path d="M0 19H104L100 4C100 4 41.9286 16.5 38 11C33 4 0 0 0 0V19Z" fill="#D9D9D9"/>
</mask>
<g mask="url(#mask0_8_669)">
<path d="M85.6357 -56.1513L38.8752 15.9621C37.654 17.8518 34.7028 16.9913 34.7028 14.7473V-45.0154C34.7028 -46.8713 33.1933 -48.373 31.3277 -48.373H12.2639C10.466 -48.373 9.39752 -50.3471 10.3643 -51.8488L57.1248 -123.962C58.346 -125.852 61.2972 -124.991 61.2972 -122.747V-62.9846C61.2972 -61.1287 62.8067 -59.627 64.6723 -59.627H83.7361C85.534 -59.627 86.6025 -57.6529 85.6357 -56.1513Z" fill="url(#paint0_linear_8_669)"/>
</g>
<defs>
<linearGradient id="paint0_linear_8_669" x1="10" y1="-43.0752" x2="85.019" y2="-67.8905" gradientUnits="userSpaceOnUse">
<stop stop-color="#00542D"/>
<stop offset="1" stop-color="#AAFF00"/>
</linearGradient>
</defs>
</svg>
