<svg xmlns="http://www.w3.org/2000/svg" xmlns:xlink="http://www.w3.org/1999/xlink" viewBox="0 0 76 142"><defs><style>.cls-1{fill:#d9d9d9;}.cls-2{mask:url(#mask);}.cls-3{fill:url(#linear-gradient);}</style><mask id="mask" x="-10" y="-12" width="104" height="156" maskUnits="userSpaceOnUse"><g id="mask0_8_679" data-name="mask0 8 679"><path class="cls-1" d="M-10,144H94L90,20.84S54.91,33.38,23.5,52.5C12,59.5-10-12-10-12Z"/></g></mask><linearGradient id="linear-gradient" x1="0.49" y1="-4" x2="75.51" y2="20.82" gradientTransform="matrix(1, 0, 0, -1, 0, 79.41)" gradientUnits="userSpaceOnUse"><stop offset="0" stop-color="#00542d"/><stop offset="1" stop-color="#af0"/></linearGradient></defs><title>Mask (3)</title><g id="Layer_2" data-name="Layer 2"><g id="Layer_1-2" data-name="Layer 1"><g class="cls-2"><path class="cls-3" d="M75.64,68.85,28.88,141a2.27,2.27,0,0,1-4.18-1.21V80a3.36,3.36,0,0,0-3.37-3.35H2.26a2.26,2.26,0,0,1-1.9-3.48L47.12,1A2.27,2.27,0,0,1,51.3,2.25V62a3.36,3.36,0,0,0,3.37,3.35H73.74A2.26,2.26,0,0,1,75.64,68.85Z"/></g></g></g></svg>